HIERARCHY
ROOT SimulationBone
{
	OFFSET 0.000000 0.000000 0.000000
	CHANNELS 6 Xposition Yposition Zposition Zrotation Yrotation Xrotation 
	JOINT Hips
	{
		OFFSET 0.000000 0.000000 0.000000
		CHANNELS 6 Xposition Yposition Zposition Zrotation Yrotation Xrotation 
		JOINT RightUpLeg
		{
			OFFSET 0.103459 1.857823 10.548503
			CHANNELS 3 Zrotation Yrotation Xrotation
			JOINT RightLeg
			{
				OFFSET 43.499996 -0.000023 0.000000
				CHANNELS 3 Zrotation Yrotation Xrotation
				JOINT RightFoot
				{
					OFFSET 42.372200 0.000004 0.000000
					CHANNELS 3 Zrotation Yrotation Xrotation
					JOINT RightToe
					{
						OFFSET 17.300018 0.000006 0.000005
						CHANNELS 3 Zrotation Yrotation Xrotation
						End Site
						{
							OFFSET 0.000000 0.000000 0.000000
						}
					}
				}
			}
		}
		JOINT LeftUpLeg
		{
			OFFSET 0.103455 1.857822 -10.548502
			CHANNELS 3 Zrotation Yrotation Xrotation
			JOINT LeftLeg
			{
				OFFSET 43.500046 0.000008 0.000013
				CHANNELS 3 Zrotation Yrotation Xrotation
				JOINT LeftFoot
				{
					OFFSET 42.372261 -0.000023 0.000013
					CHANNELS 3 Zrotation Yrotation Xrotation
					JOINT LeftToe
					{
						OFFSET 17.299988 -0.000007 0.000011
						CHANNELS 3 Zrotation Yrotation Xrotation
						End Site
						{
							OFFSET 0.000000 0.000000 0.000000
						}
					}
				}
			}
		}
		JOINT Spine
		{
			OFFSET 6.901964 -2.603734 -0.000001
			CHANNELS 3 Zrotation Yrotation Xrotation
			JOINT Spine1
			{
				OFFSET 12.588106 0.000013 -0.000000
				CHANNELS 3 Zrotation Yrotation Xrotation
				JOINT Spine2
				{
					OFFSET 12.343193 -0.000017 0.000001
					CHANNELS 3 Zrotation Yrotation Xrotation
					JOINT Neck
					{
						OFFSET 25.832893 -0.000002 -0.000002
						CHANNELS 3 Zrotation Yrotation Xrotation
						JOINT Head
						{
							OFFSET 11.766612 0.000007 0.000002
							CHANNELS 3 Zrotation Yrotation Xrotation
							End Site
							{
								OFFSET 0.000000 0.000000 0.000000
							}
						}
					}
					JOINT RightShoulder
					{
						OFFSET 19.745903 -1.480356 6.000103
						CHANNELS 3 Zrotation Yrotation Xrotation
						JOINT RightArm
						{
							OFFSET 11.284128 0.000005 -0.000009
							CHANNELS 3 Zrotation Yrotation Xrotation
							JOINT RightForeArm
							{
								OFFSET 33.000053 -0.000022 0.000028
								CHANNELS 3 Zrotation Yrotation Xrotation
								JOINT RightHand
								{
									OFFSET 25.200006 0.000028 0.000005
									CHANNELS 3 Zrotation Yrotation Xrotation
									End Site
									{
										OFFSET 0.000000 0.000000 0.000000
									}
								}
							}
						}
					}
					JOINT LeftShoulder
					{
						OFFSET 19.746094 -1.480350 -6.000075
						CHANNELS 3 Zrotation Yrotation Xrotation
						JOINT LeftArm
						{
							OFFSET 11.284135 -0.000011 -0.000017
							CHANNELS 3 Zrotation Yrotation Xrotation
							JOINT LeftForeArm
							{
								OFFSET 33.000092 0.000037 0.000003
								CHANNELS 3 Zrotation Yrotation Xrotation
								JOINT LeftHand
								{
									OFFSET 25.199785 0.000114 0.000427
									CHANNELS 3 Zrotation Yrotation Xrotation
									End Site
									{
										OFFSET 0.000000 0.000000 0.000000
									}
								}
							}
						}
					}
				}
			}
		}
	}
}
MOTION
Frames: 14
Frame Time: 0.033333
-313.730954 0.000000 400.778790 0.000000 94.856265 0.000000 0.324881 87.084808 1.809264 95.045186 3.794746 178.761081 155.081481 -1.585993 -179.864576 -18.416270 0.303828 2.971448 67.108432 -3.239820 -3.024842 21.454557 0.003103 0.000016 -157.479710 -6.806504 172.424697 -14.936247 4.670934 -1.713525 87.325867 -0.739278 -9.707984 21.454548 -0.003085 0.000001 8.172080 0.554727 1.155382 6.342249 1.045576 2.339390 6.024375 1.059545 2.333042 19.277980 -5.140964 -8.585394 -20.696878 12.424298 -14.087878 162.150562 -74.635997 16.851029 0.994598 55.098818 45.322499 -35.623658 -19.312643 1.655145 4.157746 -9.169318 5.786539 -178.273661 81.285528 3.305623 -23.433723 -59.733064 -39.044660 -32.966161 16.632457 -1.395259 2.328685 20.331742 0.121434 
-314.193353 0.000000 397.766706 0.000000 94.065545 0.000000 0.684365 87.377068 1.605807 95.153762 2.424514 179.151185 155.968476 0.134996 -178.524916 -20.721377 0.129477 1.569419 66.570985 -1.880956 -2.085339 21.454560 0.003109 0.000016 -156.823671 -5.292499 174.167980 -17.210444 4.038821 -2.647584 84.571061 -0.094485 -8.584674 21.454553 -0.003090 -0.000001 8.195268 0.143220 1.104645 6.379912 0.225585 2.215488 6.062060 0.238822 2.214065 19.349497 -5.346740 -8.332466 -20.372868 12.977096 -13.989916 162.687402 -74.455701 16.310729 1.901234 54.549046 45.514379 -35.402418 -19.287875 1.648257 4.315711 -9.575522 5.555804 -179.312314 81.447670 2.255606 -21.130473 -61.047302 -39.855322 -31.742256 15.897369 -1.322140 3.581588 12.871158 -1.321134 
-314.620818 0.000000 394.783989 0.000000 93.318798 0.000000 0.949744 87.822258 1.427401 94.982645 1.327937 179.376989 156.596662 0.992994 -179.007005 -23.390830 -0.596683 1.529641 69.047817 -1.114681 -0.192054 21.454558 0.003108 0.000017 -157.910763 -4.036111 175.862003 -21.679440 3.296676 -3.682528 80.803283 0.852926 -6.514378 21.454553 -0.003093 -0.000003 8.183051 -0.228917 1.097181 6.348368 -0.517360 2.180202 6.030523 -0.504341 2.183287 19.140027 -5.240008 -8.126924 -19.869094 13.178615 -13.788123 163.362675 -74.507002 15.618411 1.980422 54.201513 45.306871 -34.544949 -19.117365 1.617086 4.554522 -9.987286 4.792304 -178.867300 81.354206 2.704996 -18.880552 -61.999997 -41.209967 -30.236301 15.100068 -1.240699 3.973436 8.284220 -1.675154 
-315.017833 0.000000 391.840081 0.000000 92.625962 0.000000 0.991636 88.425438 1.178302 94.758472 0.421377 179.129059 158.199940 1.796492 -179.980484 -23.953685 -0.702568 1.497194 70.816200 -0.715359 0.903344 21.454558 0.003104 0.000017 -160.544266 -2.129805 176.689727 -28.094255 3.639741 -4.809175 76.207897 2.164177 -3.782677 21.454555 -0.003096 -0.000003 8.190238 -0.565163 1.167534 6.355982 -1.193296 2.302477 6.038078 -1.179508 2.309644 19.265522 -5.027768 -7.899501 -20.009604 13.401354 -13.653234 163.289128 -74.659930 15.686829 1.688806 54.022695 44.429038 -33.717765 -18.912647 1.584972 4.979169 -9.588572 4.584846 -179.722781 81.495823 1.840391 -16.696599 -62.738928 -43.256944 -29.057629 14.441860 -1.176004 3.638469 6.244645 -2.326386 
-315.381253 0.000000 388.934261 0.000000 92.000180 0.000000 1.077534 89.245117 0.879388 94.613857 -0.072305 178.599571 160.824030 2.283483 179.350891 -22.732345 -0.766514 1.239092 72.166549 -0.372403 1.419405 21.454560 0.003108 0.000018 -164.459603 0.057207 179.784676 -36.463737 3.000555 -7.221352 70.990787 5.491118 1.330630 21.454553 -0.003101 0.000005 8.198881 -0.764781 1.219339 6.368868 -1.595185 2.395084 6.050935 -1.580855 2.404671 19.407272 -5.253978 -7.602244 -19.931281 13.429504 -13.329522 163.549016 -74.824920 15.414134 1.304993 54.122153 43.632519 -32.963128 -18.795659 1.560600 5.588766 -9.053759 4.378008 176.691284 81.773572 -1.786608 -13.817651 -62.698138 -46.308331 -29.293664 14.238299 -1.167347 3.951049 4.899737 -3.639832 
-315.713462 0.000000 386.072838 0.000000 91.447873 0.000000 1.061542 89.934647 0.551068 94.554536 -0.543762 177.787317 163.542623 2.684109 179.344853 -21.255347 -1.301852 0.486046 73.492952 0.232358 1.667717 21.454557 0.003109 0.000018 -169.128885 2.300201 -177.725702 -45.476550 1.765538 -8.383083 65.645611 9.163331 8.072929 21.454545 -0.003090 0.000002 8.225184 -0.917334 1.229238 6.418429 -1.901103 2.406205 6.100429 -1.886672 2.417633 19.465009 -5.690189 -7.162454 -19.988786 13.176687 -12.762185 164.003169 -74.839059 14.949529 1.146781 54.188501 43.031011 -32.616639 -18.772715 1.551535 5.901354 -8.553624 4.134127 176.062906 82.414258 -2.407301 -12.334177 -62.358043 -48.768251 -30.257274 14.401220 -1.196222 3.659336 4.282424 -5.245225 
-316.012873 0.000000 383.260648 0.000000 90.961003 0.000000 0.910259 90.491783 0.234256 94.542289 -0.919194 176.944096 166.122768 3.038092 178.822289 -19.844826 -1.700367 0.037783 74.668038 0.633295 1.992277 21.454557 0.003094 0.000015 -174.171012 4.191192 -175.984974 -54.061641 0.531728 -7.849151 62.834448 10.756745 12.029197 21.454560 -0.003103 0.000003 8.275141 -1.036703 1.178763 6.517149 -2.137828 2.297830 6.199079 -2.124051 2.310685 19.403755 -5.818866 -6.776931 -20.067099 12.832290 -12.227575 164.293712 -74.681063 14.659423 0.921946 53.813725 42.883715 -32.749647 -18.754993 1.553304 5.577111 -8.922460 3.886586 177.344291 82.916120 -1.099620 -11.694791 -61.800870 -49.731379 -31.729101 14.882256 -1.256605 3.078020 3.591977 -6.619926 
-316.273554 0.000000 380.500122 0.000000 90.538224 0.000000 0.782485 91.002274 -0.023908 94.689119 -0.858509 176.575743 168.762008 3.077700 178.656111 -18.518026 -2.158200 -0.244327 75.661140 0.989606 2.579039 21.454557 0.003104 0.000016 -178.882969 5.494597 -174.972549 -61.045171 0.473310 -6.554516 64.861915 9.074689 10.868888 21.454558 -0.003091 -0.000005 8.377671 -1.037537 1.006791 6.725487 -2.131549 1.952070 6.407351 -2.119857 1.964891 19.120613 -5.570546 -6.384348 -20.098105 12.342779 -11.634804 163.542487 -74.746503 15.424073 0.571958 53.521649 42.771990 -33.405028 -18.885782 1.576204 5.523934 -9.107279 3.993053 -179.529910 82.660882 2.056291 -11.636913 -60.621761 -49.025131 -33.392549 15.312680 -1.319522 1.956377 3.679394 -7.398798 
-316.492974 0.000000 377.789915 0.000000 90.184939 0.000000 0.601817 91.266586 -0.182699 94.928197 -0.890687 176.645810 170.881580 3.276990 177.971480 -18.179628 -2.281869 0.018861 76.932812 0.938723 3.174834 21.454557 0.003106 0.000017 176.930860 6.607104 -173.988236 -65.395680 0.919282 -5.460082 68.561828 6.489965 7.169857 21.454562 -0.003096 0.000003 8.483571 -1.022916 0.723016 6.942830 -2.087180 1.383738 6.624597 -2.078906 1.396309 19.437542 -5.184557 -6.055321 -20.531091 11.861450 -11.141943 161.676725 -74.748955 17.329752 0.338325 53.104536 43.024946 -34.008625 -19.136785 1.605985 5.493652 -9.435876 4.013259 -177.417142 82.310043 4.188558 -11.715461 -59.808026 -47.540213 -34.551414 15.709819 -1.370859 1.103706 5.501385 -5.913188 
-316.666214 0.000000 375.131903 0.000000 89.879253 0.000000 0.475807 91.392601 -0.290688 95.213408 -0.984087 176.977094 172.771370 3.551801 177.313651 -18.335913 -2.285750 0.427101 78.360984 0.732030 3.638198 21.454558 0.003103 0.000017 173.042460 7.194205 -172.832063 -67.597699 0.791697 -4.334614 71.518405 4.703836 4.919860 21.454558 -0.003101 -0.000004 8.571788 -0.981942 0.413820 7.125171 -1.987356 0.766648 6.806895 -1.982827 0.778634 20.023251 -5.067974 -5.870793 -20.886823 11.712328 -10.911052 160.216184 -74.691267 18.823788 -0.212175 52.767897 42.788297 -34.477053 -19.432180 1.635790 5.204912 -9.375689 4.694616 -176.799010 82.121366 4.811701 -11.448431 -59.546996 -46.072973 -35.254476 16.420313 -1.432838 1.267729 7.970289 -3.129390 
-316.791517 0.000000 372.524608 0.000000 89.611972 0.000000 0.380458 91.432449 -0.391183 95.503965 -1.078288 177.250706 174.543422 3.852910 177.164425 -18.669514 -2.312210 0.522530 79.831784 0.686565 3.919318 21.454558 0.003121 0.000018 169.735296 7.504595 -172.861788 -66.831871 1.454994 -4.184854 74.648176 3.699662 2.573115 21.454560 -0.003103 0.000006 8.650354 -0.933771 0.190792 7.286189 -1.877580 0.322573 6.967910 -1.875740 0.333908 20.294799 -4.894593 -5.966478 -20.799062 11.671140 -10.979714 159.535502 -74.658305 19.520331 -1.632400 52.461447 41.933690 -34.658111 -19.673173 1.655525 5.130071 -9.188152 5.285159 -173.527253 81.877159 8.122427 -11.173451 -59.700600 -44.251474 -36.075099 17.126083 -1.497740 2.198744 11.531978 -1.187226 
-316.872886 0.000000 369.963571 0.000000 89.379536 0.000000 0.283755 91.267761 -0.427696 95.806348 -1.460509 177.272871 176.021433 4.342192 177.170080 -19.541996 -2.454702 0.397509 81.547473 0.747573 4.062496 21.454557 0.003106 0.000017 166.778453 7.751097 -174.374197 -64.335205 2.776803 -4.476463 78.761370 3.444104 1.427223 21.454558 -0.003101 -0.000005 8.719951 -0.952955 0.040755 7.427914 -1.906480 0.020399 7.109622 -1.906459 0.031903 20.590901 -4.770899 -6.110943 -20.857381 11.596959 -11.104472 158.981532 -74.457347 20.095853 -3.010634 51.993063 40.831025 -34.954333 -19.898281 1.676991 5.181784 -9.498391 5.178493 -171.185427 81.756545 10.494290 -10.702683 -60.078303 -42.845415 -37.037773 17.616583 -1.552773 2.995168 15.379747 0.546712 
-316.922883 0.000000 367.432133 0.000000 89.183886 0.000000 0.249837 91.102043 -0.444216 96.038545 -1.788756 177.309014 177.571367 4.770996 177.224161 -20.208329 -2.573695 0.287682 83.146222 0.791061 4.173595 21.454557 0.003111 0.000019 164.497771 7.475493 -175.928065 -59.800109 3.913994 -4.066380 82.010382 2.937804 0.893265 21.454550 -0.003097 -0.000002 8.764618 -0.975470 -0.079350 7.519351 -1.943651 -0.221836 7.201059 -1.945100 -0.210092 20.904038 -4.406161 -6.154649 -21.141744 11.328087 -11.077531 158.204298 -74.432369 20.890620 -4.178484 51.688129 39.579129 -35.552443 -20.110343 1.704947 5.279050 -10.368256 4.633825 -169.209426 81.432138 12.496082 -10.530689 -60.311301 -42.135048 -37.732393 17.956482 -1.592056 3.765002 18.318291 2.753584 
-316.947427 0.000000 364.922161 0.000000 89.014319 0.000000 0.266420 91.016296 -0.474738 96.126353 -1.948461 177.369679 179.270705 5.072196 177.034241 -20.358019 -2.516819 0.344487 84.443473 0.722966 4.269989 21.454560 0.003110 0.000018 162.722208 6.738687 -176.430494 -53.630201 4.045057 -3.193798 83.211908 2.011195 -0.451373 21.454550 -0.003092 0.000002 8.770004 -0.965053 -0.192446 7.531923 -1.915524 -0.447237 7.213656 -1.918326 -0.435655 21.185963 -4.207457 -6.193914 -21.420194 11.331400 -11.152953 157.866886 -74.478644 21.232755 -5.342962 51.487264 38.408773 -36.319760 -20.478020 1.747427 5.414491 -11.248712 4.031626 -169.173267 80.945986 12.532110 -10.406956 -60.360062 -41.737442 -38.087700 18.262872 -1.620897 4.030250 18.982943 3.272864 
